<svg width="19" height="22" viewBox="0 0 19 22" fill="none" xmlns="http://www.w3.org/2000/svg">
<path d="M1.06543 0.734222C1.2414 0.734358 1.41422 0.780926 1.56643 0.869222L17.5704 10.1352C17.722 10.2231 17.8478 10.3493 17.9352 10.5011C18.0226 10.6529 18.0687 10.825 18.0687 11.0002C18.0687 11.1754 18.0226 11.3475 17.9352 11.4993C17.8478 11.6511 17.722 11.7773 17.5704 11.8652L1.56643 21.1312C1.41446 21.2192 1.242 21.2656 1.06641 21.2658C0.890811 21.2659 0.718265 21.2199 0.566124 21.1322C0.413982 21.0445 0.28761 20.9183 0.199717 20.7663C0.111823 20.6143 0.0655082 20.4418 0.0654297 20.2662V1.73422C0.0654297 1.46901 0.170786 1.21465 0.358323 1.02712C0.545859 0.839579 0.800213 0.734222 1.06543 0.734222ZM9.35743 12.4142L4.85943 16.9122L10.5584 13.6132L9.35843 12.4132L9.35743 12.4142ZM2.06543 5.11822V16.8782L7.94543 10.9982L2.06543 5.11822ZM12.3494 9.42022L10.7714 11.0002L12.3494 12.5772L15.0734 11.0002L12.3484 9.42122L12.3494 9.42022ZM4.85943 5.08422L9.35943 9.58422L10.5584 8.38422L4.85943 5.08422Z" fill="#6729FF"/>
</svg>
