<svg width="707" height="487" viewBox="0 0 707 487" fill="none" xmlns="http://www.w3.org/2000/svg">
<g filter="url(#filter0_dddd_193_2758)">
<rect x="420" y="4" width="207" height="48" rx="8" fill="white"/>
<rect x="424" y="8" width="40" height="40" rx="6.83333" fill="#EEE5FF"/>
<path d="M448 24H442C441.47 24 440.961 24.2107 440.586 24.5858C440.211 24.9609 440 25.4696 440 26C440 26.5304 440.211 27.0391 440.586 27.4142C440.961 27.7893 441.47 28 442 28H446C446.53 28 447.039 28.2107 447.414 28.5858C447.789 28.9609 448 29.4696 448 30C448 30.5304 447.789 31.0391 447.414 31.4142C447.039 31.7893 446.53 32 446 32H440M444 34V22M454 28C454 33.5228 449.523 38 444 38C438.477 38 434 33.5228 434 28C434 22.4772 438.477 18 444 18C449.523 18 454 22.4772 454 28Z" stroke="#6729FF" stroke-width="2" stroke-linecap="round" stroke-linejoin="round"/>
<path d="M478.288 33.098C477.635 33.098 477.047 32.986 476.524 32.762C476.002 32.5287 475.591 32.202 475.292 31.782C474.994 31.362 474.844 30.872 474.844 30.312H476.552C476.59 30.732 476.753 31.0773 477.042 31.348C477.341 31.6187 477.756 31.754 478.288 31.754C478.839 31.754 479.268 31.6233 479.576 31.362C479.884 31.0913 480.038 30.746 480.038 30.326C480.038 29.9993 479.94 29.7333 479.744 29.528C479.558 29.3227 479.32 29.164 479.03 29.052C478.75 28.94 478.358 28.8187 477.854 28.688C477.22 28.52 476.702 28.352 476.3 28.184C475.908 28.0067 475.572 27.736 475.292 27.372C475.012 27.008 474.872 26.5227 474.872 25.916C474.872 25.356 475.012 24.866 475.292 24.446C475.572 24.026 475.964 23.704 476.468 23.48C476.972 23.256 477.556 23.144 478.218 23.144C479.161 23.144 479.931 23.382 480.528 23.858C481.135 24.3247 481.471 24.9687 481.536 25.79H479.772C479.744 25.4353 479.576 25.132 479.268 24.88C478.96 24.628 478.554 24.502 478.05 24.502C477.593 24.502 477.22 24.6187 476.93 24.852C476.641 25.0853 476.496 25.4213 476.496 25.86C476.496 26.1587 476.585 26.406 476.762 26.602C476.949 26.7887 477.182 26.938 477.462 27.05C477.742 27.162 478.125 27.2833 478.61 27.414C479.254 27.5913 479.777 27.7687 480.178 27.946C480.589 28.1233 480.934 28.3987 481.214 28.772C481.504 29.136 481.648 29.626 481.648 30.242C481.648 30.7367 481.513 31.2033 481.242 31.642C480.981 32.0807 480.594 32.4353 480.08 32.706C479.576 32.9673 478.979 33.098 478.288 33.098ZM490.601 28.954C490.601 29.2433 490.583 29.5047 490.545 29.738H484.651C484.698 30.354 484.927 30.8487 485.337 31.222C485.748 31.5953 486.252 31.782 486.849 31.782C487.708 31.782 488.315 31.4227 488.669 30.704H490.391C490.158 31.4133 489.733 31.9967 489.117 32.454C488.511 32.902 487.755 33.126 486.849 33.126C486.112 33.126 485.449 32.9627 484.861 32.636C484.283 32.3 483.825 31.8333 483.489 31.236C483.163 30.6293 482.999 29.9293 482.999 29.136C482.999 28.3427 483.158 27.6473 483.475 27.05C483.802 26.4433 484.255 25.9767 484.833 25.65C485.421 25.3233 486.093 25.16 486.849 25.16C487.577 25.16 488.226 25.3187 488.795 25.636C489.365 25.9533 489.808 26.4013 490.125 26.98C490.443 27.5493 490.601 28.2073 490.601 28.954ZM488.935 28.45C488.926 27.862 488.716 27.3907 488.305 27.036C487.895 26.6813 487.386 26.504 486.779 26.504C486.229 26.504 485.757 26.6813 485.365 27.036C484.973 27.3813 484.74 27.8527 484.665 28.45H488.935ZM501.51 25.16C502.117 25.16 502.658 25.286 503.134 25.538C503.619 25.79 503.997 26.1633 504.268 26.658C504.548 27.1527 504.688 27.75 504.688 28.45V33H503.106V28.688C503.106 27.9973 502.933 27.47 502.588 27.106C502.243 26.7327 501.771 26.546 501.174 26.546C500.577 26.546 500.101 26.7327 499.746 27.106C499.401 27.47 499.228 27.9973 499.228 28.688V33H497.646V28.688C497.646 27.9973 497.473 27.47 497.128 27.106C496.783 26.7327 496.311 26.546 495.714 26.546C495.117 26.546 494.641 26.7327 494.286 27.106C493.941 27.47 493.768 27.9973 493.768 28.688V33H492.172V25.286H493.768V26.168C494.029 25.8507 494.361 25.6033 494.762 25.426C495.163 25.2487 495.593 25.16 496.05 25.16C496.666 25.16 497.217 25.2907 497.702 25.552C498.187 25.8133 498.561 26.1913 498.822 26.686C499.055 26.2193 499.419 25.8507 499.914 25.58C500.409 25.3 500.941 25.16 501.51 25.16ZM512.218 26.588V30.858C512.218 31.1473 512.283 31.3573 512.414 31.488C512.554 31.6093 512.787 31.67 513.114 31.67H514.094V33H512.834C512.115 33 511.564 32.832 511.182 32.496C510.799 32.16 510.608 31.614 510.608 30.858V26.588H509.698V25.286H510.608V23.368H512.218V25.286H514.094V26.588H512.218ZM515.033 29.108C515.033 28.3333 515.191 27.6473 515.509 27.05C515.835 26.4527 516.274 25.9907 516.825 25.664C517.385 25.328 518.001 25.16 518.673 25.16C519.279 25.16 519.807 25.2813 520.255 25.524C520.712 25.7573 521.076 26.0513 521.347 26.406V25.286H522.957V33H521.347V31.852C521.076 32.216 520.707 32.5193 520.241 32.762C519.774 33.0047 519.242 33.126 518.645 33.126C517.982 33.126 517.375 32.958 516.825 32.622C516.274 32.2767 515.835 31.8007 515.509 31.194C515.191 30.578 515.033 29.8827 515.033 29.108ZM521.347 29.136C521.347 28.604 521.235 28.142 521.011 27.75C520.796 27.358 520.511 27.0593 520.157 26.854C519.802 26.6487 519.419 26.546 519.009 26.546C518.598 26.546 518.215 26.6487 517.861 26.854C517.506 27.05 517.217 27.344 516.993 27.736C516.778 28.1187 516.671 28.576 516.671 29.108C516.671 29.64 516.778 30.1067 516.993 30.508C517.217 30.9093 517.506 31.2173 517.861 31.432C518.225 31.6373 518.607 31.74 519.009 31.74C519.419 31.74 519.802 31.6373 520.157 31.432C520.511 31.2267 520.796 30.928 521.011 30.536C521.235 30.1347 521.347 29.668 521.347 29.136ZM528.357 29.094L530.849 33H529.043L527.377 30.382L525.809 33H524.143L526.635 29.206L524.143 25.286H525.949L527.615 27.904L529.183 25.286H530.849L528.357 29.094ZM531.507 29.108C531.507 28.3333 531.666 27.6473 531.983 27.05C532.31 26.4527 532.749 25.9907 533.299 25.664C533.859 25.328 534.475 25.16 535.147 25.16C535.754 25.16 536.281 25.2813 536.729 25.524C537.187 25.7573 537.551 26.0513 537.821 26.406V25.286H539.431V33H537.821V31.852C537.551 32.216 537.182 32.5193 536.715 32.762C536.249 33.0047 535.717 33.126 535.119 33.126C534.457 33.126 533.85 32.958 533.299 32.622C532.749 32.2767 532.31 31.8007 531.983 31.194C531.666 30.578 531.507 29.8827 531.507 29.108ZM537.821 29.136C537.821 28.604 537.709 28.142 537.485 27.75C537.271 27.358 536.986 27.0593 536.631 26.854C536.277 26.6487 535.894 26.546 535.483 26.546C535.073 26.546 534.69 26.6487 534.335 26.854C533.981 27.05 533.691 27.344 533.467 27.736C533.253 28.1187 533.145 28.576 533.145 29.108C533.145 29.64 533.253 30.1067 533.467 30.508C533.691 30.9093 533.981 31.2173 534.335 31.432C534.699 31.6373 535.082 31.74 535.483 31.74C535.894 31.74 536.277 31.6373 536.631 31.432C536.986 31.2267 537.271 30.928 537.485 30.536C537.709 30.1347 537.821 29.668 537.821 29.136ZM544.328 33.126C543.721 33.126 543.175 33.0187 542.69 32.804C542.214 32.58 541.836 32.2813 541.556 31.908C541.276 31.5253 541.126 31.1007 541.108 30.634H542.76C542.788 30.9607 542.942 31.236 543.222 31.46C543.511 31.6747 543.87 31.782 544.3 31.782C544.748 31.782 545.093 31.698 545.336 31.53C545.588 31.3527 545.714 31.1287 545.714 30.858C545.714 30.5687 545.574 30.354 545.294 30.214C545.023 30.074 544.589 29.92 543.992 29.752C543.413 29.5933 542.942 29.4393 542.578 29.29C542.214 29.1407 541.896 28.912 541.626 28.604C541.364 28.296 541.234 27.89 541.234 27.386C541.234 26.9753 541.355 26.602 541.598 26.266C541.84 25.9207 542.186 25.65 542.634 25.454C543.091 25.258 543.614 25.16 544.202 25.16C545.079 25.16 545.784 25.384 546.316 25.832C546.857 26.2707 547.146 26.8727 547.184 27.638H545.588C545.56 27.2927 545.42 27.0173 545.168 26.812C544.916 26.6067 544.575 26.504 544.146 26.504C543.726 26.504 543.404 26.5833 543.18 26.742C542.956 26.9007 542.844 27.1107 542.844 27.372C542.844 27.5773 542.918 27.75 543.068 27.89C543.217 28.03 543.399 28.142 543.614 28.226C543.828 28.3007 544.146 28.3987 544.566 28.52C545.126 28.6693 545.583 28.8233 545.938 28.982C546.302 29.1313 546.614 29.3553 546.876 29.654C547.137 29.9527 547.272 30.3493 547.282 30.844C547.282 31.2827 547.16 31.6747 546.918 32.02C546.675 32.3653 546.33 32.636 545.882 32.832C545.443 33.028 544.925 33.126 544.328 33.126ZM552.111 29.108C552.111 28.3333 552.269 27.6473 552.587 27.05C552.913 26.4527 553.352 25.9907 553.903 25.664C554.463 25.328 555.079 25.16 555.751 25.16C556.357 25.16 556.885 25.2813 557.333 25.524C557.79 25.7573 558.154 26.0513 558.425 26.406V25.286H560.035V33H558.425V31.852C558.154 32.216 557.785 32.5193 557.319 32.762C556.852 33.0047 556.32 33.126 555.723 33.126C555.06 33.126 554.453 32.958 553.903 32.622C553.352 32.2767 552.913 31.8007 552.587 31.194C552.269 30.578 552.111 29.8827 552.111 29.108ZM558.425 29.136C558.425 28.604 558.313 28.142 558.089 27.75C557.874 27.358 557.589 27.0593 557.235 26.854C556.88 26.6487 556.497 26.546 556.087 26.546C555.676 26.546 555.293 26.6487 554.939 26.854C554.584 27.05 554.295 27.344 554.071 27.736C553.856 28.1187 553.749 28.576 553.749 29.108C553.749 29.64 553.856 30.1067 554.071 30.508C554.295 30.9093 554.584 31.2173 554.939 31.432C555.303 31.6373 555.685 31.74 556.087 31.74C556.497 31.74 556.88 31.6373 557.235 31.432C557.589 31.2267 557.874 30.928 558.089 30.536C558.313 30.1347 558.425 29.668 558.425 29.136ZM563.727 26.434C563.998 26.0607 564.366 25.7573 564.833 25.524C565.309 25.2813 565.836 25.16 566.415 25.16C567.096 25.16 567.712 25.3233 568.263 25.65C568.814 25.9767 569.248 26.4433 569.565 27.05C569.882 27.6473 570.041 28.3333 570.041 29.108C570.041 29.8827 569.882 30.578 569.565 31.194C569.248 31.8007 568.809 32.2767 568.249 32.622C567.698 32.958 567.087 33.126 566.415 33.126C565.818 33.126 565.286 33.0093 564.819 32.776C564.362 32.5427 563.998 32.244 563.727 31.88V33H562.131V22.64H563.727V26.434ZM568.417 29.108C568.417 28.576 568.305 28.1187 568.081 27.736C567.866 27.344 567.577 27.05 567.213 26.854C566.858 26.6487 566.476 26.546 566.065 26.546C565.664 26.546 565.281 26.6487 564.917 26.854C564.562 27.0593 564.273 27.358 564.049 27.75C563.834 28.142 563.727 28.604 563.727 29.136C563.727 29.668 563.834 30.1347 564.049 30.536C564.273 30.928 564.562 31.2267 564.917 31.432C565.281 31.6373 565.664 31.74 566.065 31.74C566.476 31.74 566.858 31.6373 567.213 31.432C567.577 31.2173 567.866 30.9093 568.081 30.508C568.305 30.1067 568.417 29.64 568.417 29.108ZM574.419 33.126C573.813 33.126 573.267 33.0187 572.781 32.804C572.305 32.58 571.927 32.2813 571.647 31.908C571.367 31.5253 571.218 31.1007 571.199 30.634H572.851C572.879 30.9607 573.033 31.236 573.313 31.46C573.603 31.6747 573.962 31.782 574.391 31.782C574.839 31.782 575.185 31.698 575.427 31.53C575.679 31.3527 575.805 31.1287 575.805 30.858C575.805 30.5687 575.665 30.354 575.385 30.214C575.115 30.074 574.681 29.92 574.083 29.752C573.505 29.5933 573.033 29.4393 572.669 29.29C572.305 29.1407 571.988 28.912 571.717 28.604C571.456 28.296 571.325 27.89 571.325 27.386C571.325 26.9753 571.447 26.602 571.689 26.266C571.932 25.9207 572.277 25.65 572.725 25.454C573.183 25.258 573.705 25.16 574.293 25.16C575.171 25.16 575.875 25.384 576.407 25.832C576.949 26.2707 577.238 26.8727 577.275 27.638H575.679C575.651 27.2927 575.511 27.0173 575.259 26.812C575.007 26.6067 574.667 26.504 574.237 26.504C573.817 26.504 573.495 26.5833 573.271 26.742C573.047 26.9007 572.935 27.1107 572.935 27.372C572.935 27.5773 573.01 27.75 573.159 27.89C573.309 28.03 573.491 28.142 573.705 28.226C573.92 28.3007 574.237 28.3987 574.657 28.52C575.217 28.6693 575.675 28.8233 576.029 28.982C576.393 29.1313 576.706 29.3553 576.967 29.654C577.229 29.9527 577.364 30.3493 577.373 30.844C577.373 31.2827 577.252 31.6747 577.009 32.02C576.767 32.3653 576.421 32.636 575.973 32.832C575.535 33.028 575.017 33.126 574.419 33.126ZM586.084 25.286V33H584.488V32.09C584.236 32.4073 583.905 32.6593 583.494 32.846C583.093 33.0233 582.663 33.112 582.206 33.112C581.599 33.112 581.053 32.986 580.568 32.734C580.092 32.482 579.714 32.1087 579.434 31.614C579.163 31.1193 579.028 30.522 579.028 29.822V25.286H580.61V29.584C580.61 30.2747 580.783 30.8067 581.128 31.18C581.473 31.544 581.945 31.726 582.542 31.726C583.139 31.726 583.611 31.544 583.956 31.18C584.311 30.8067 584.488 30.2747 584.488 29.584V25.286H586.084ZM589.786 26.406C590.019 26.014 590.327 25.7107 590.71 25.496C591.102 25.272 591.564 25.16 592.096 25.16V26.812H591.69C591.064 26.812 590.588 26.9707 590.262 27.288C589.944 27.6053 589.786 28.156 589.786 28.94V33H588.19V25.286H589.786V26.406ZM593.031 29.108C593.031 28.3333 593.189 27.6473 593.507 27.05C593.833 26.4527 594.272 25.9907 594.823 25.664C595.383 25.328 596.003 25.16 596.685 25.16C597.189 25.16 597.683 25.272 598.169 25.496C598.663 25.7107 599.055 26 599.345 26.364V22.64H600.955V33H599.345V31.838C599.083 32.2113 598.719 32.5193 598.253 32.762C597.795 33.0047 597.268 33.126 596.671 33.126C595.999 33.126 595.383 32.958 594.823 32.622C594.272 32.2767 593.833 31.8007 593.507 31.194C593.189 30.578 593.031 29.8827 593.031 29.108ZM599.345 29.136C599.345 28.604 599.233 28.142 599.009 27.75C598.794 27.358 598.509 27.0593 598.155 26.854C597.8 26.6487 597.417 26.546 597.007 26.546C596.596 26.546 596.213 26.6487 595.859 26.854C595.504 27.05 595.215 27.344 594.991 27.736C594.776 28.1187 594.669 28.576 594.669 29.108C594.669 29.64 594.776 30.1067 594.991 30.508C595.215 30.9093 595.504 31.2173 595.859 31.432C596.223 31.6373 596.605 31.74 597.007 31.74C597.417 31.74 597.8 31.6373 598.155 31.432C598.509 31.2267 598.794 30.928 599.009 30.536C599.233 30.1347 599.345 29.668 599.345 29.136ZM602.519 29.108C602.519 28.3333 602.678 27.6473 602.995 27.05C603.322 26.4527 603.76 25.9907 604.311 25.664C604.871 25.328 605.487 25.16 606.159 25.16C606.766 25.16 607.293 25.2813 607.741 25.524C608.198 25.7573 608.562 26.0513 608.833 26.406V25.286H610.443V33H608.833V31.852C608.562 32.216 608.194 32.5193 607.727 32.762C607.26 33.0047 606.728 33.126 606.131 33.126C605.468 33.126 604.862 32.958 604.311 32.622C603.76 32.2767 603.322 31.8007 602.995 31.194C602.678 30.578 602.519 29.8827 602.519 29.108ZM608.833 29.136C608.833 28.604 608.721 28.142 608.497 27.75C608.282 27.358 607.998 27.0593 607.643 26.854C607.288 26.6487 606.906 26.546 606.495 26.546C606.084 26.546 605.702 26.6487 605.347 26.854C604.992 27.05 604.703 27.344 604.479 27.736C604.264 28.1187 604.157 28.576 604.157 29.108C604.157 29.64 604.264 30.1067 604.479 30.508C604.703 30.9093 604.992 31.2173 605.347 31.432C605.711 31.6373 606.094 31.74 606.495 31.74C606.906 31.74 607.288 31.6373 607.643 31.432C607.998 31.2267 608.282 30.928 608.497 30.536C608.721 30.1347 608.833 29.668 608.833 29.136ZM615.339 33.126C614.733 33.126 614.187 33.0187 613.701 32.804C613.225 32.58 612.847 32.2813 612.567 31.908C612.287 31.5253 612.138 31.1007 612.119 30.634H613.771C613.799 30.9607 613.953 31.236 614.233 31.46C614.523 31.6747 614.882 31.782 615.311 31.782C615.759 31.782 616.105 31.698 616.347 31.53C616.599 31.3527 616.725 31.1287 616.725 30.858C616.725 30.5687 616.585 30.354 616.305 30.214C616.035 30.074 615.601 29.92 615.003 29.752C614.425 29.5933 613.953 29.4393 613.589 29.29C613.225 29.1407 612.908 28.912 612.637 28.604C612.376 28.296 612.245 27.89 612.245 27.386C612.245 26.9753 612.367 26.602 612.609 26.266C612.852 25.9207 613.197 25.65 613.645 25.454C614.103 25.258 614.625 25.16 615.213 25.16C616.091 25.16 616.795 25.384 617.327 25.832C617.869 26.2707 618.158 26.8727 618.195 27.638H616.599C616.571 27.2927 616.431 27.0173 616.179 26.812C615.927 26.6067 615.587 26.504 615.157 26.504C614.737 26.504 614.415 26.5833 614.191 26.742C613.967 26.9007 613.855 27.1107 613.855 27.372C613.855 27.5773 613.93 27.75 614.079 27.89C614.229 28.03 614.411 28.142 614.625 28.226C614.84 28.3007 615.157 28.3987 615.577 28.52C616.137 28.6693 616.595 28.8233 616.949 28.982C617.313 29.1313 617.626 29.3553 617.887 29.654C618.149 29.9527 618.284 30.3493 618.293 30.844C618.293 31.2827 618.172 31.6747 617.929 32.02C617.687 32.3653 617.341 32.636 616.893 32.832C616.455 33.028 615.937 33.126 615.339 33.126Z" fill="#475569"/>
</g>
<g filter="url(#filter1_dddd_193_2758)">
<rect x="452" y="372" width="236" height="48" rx="8" fill="white"/>
<rect x="456" y="376" width="40" height="40" rx="6.83333" fill="#EEE5FF"/>
<path d="M476 397C478.761 397 481 394.761 481 392C481 389.239 478.761 387 476 387C473.239 387 471 389.239 471 392C471 394.761 473.239 397 476 397ZM476 397C478.122 397 480.157 397.843 481.657 399.343C483.157 400.843 484 402.878 484 405M476 397C473.878 397 471.843 397.843 470.343 399.343C468.843 400.843 468 402.878 468 405" stroke="#6729FF" stroke-width="2" stroke-linecap="round" stroke-linejoin="round"/>
<path d="M506.745 392.25V390.794H509.657V401H508.047V392.25H506.745ZM511.85 395.764C511.85 394.149 512.12 392.889 512.662 391.984C513.212 391.069 514.155 390.612 515.49 390.612C516.824 390.612 517.762 391.069 518.304 391.984C518.854 392.889 519.13 394.149 519.13 395.764C519.13 397.397 518.854 398.676 518.304 399.6C517.762 400.515 516.824 400.972 515.49 400.972C514.155 400.972 513.212 400.515 512.662 399.6C512.12 398.676 511.85 397.397 511.85 395.764ZM517.562 395.764C517.562 395.008 517.51 394.369 517.408 393.846C517.314 393.323 517.118 392.899 516.82 392.572C516.521 392.236 516.078 392.068 515.49 392.068C514.902 392.068 514.458 392.236 514.16 392.572C513.861 392.899 513.66 393.323 513.558 393.846C513.464 394.369 513.418 395.008 513.418 395.764C513.418 396.548 513.464 397.206 513.558 397.738C513.651 398.27 513.847 398.699 514.146 399.026C514.454 399.353 514.902 399.516 515.49 399.516C516.078 399.516 516.521 399.353 516.82 399.026C517.128 398.699 517.328 398.27 517.422 397.738C517.515 397.206 517.562 396.548 517.562 395.764ZM520.819 395.764C520.819 394.149 521.089 392.889 521.631 391.984C522.181 391.069 523.124 390.612 524.459 390.612C525.793 390.612 526.731 391.069 527.273 391.984C527.823 392.889 528.099 394.149 528.099 395.764C528.099 397.397 527.823 398.676 527.273 399.6C526.731 400.515 525.793 400.972 524.459 400.972C523.124 400.972 522.181 400.515 521.631 399.6C521.089 398.676 520.819 397.397 520.819 395.764ZM526.531 395.764C526.531 395.008 526.479 394.369 526.377 393.846C526.283 393.323 526.087 392.899 525.789 392.572C525.49 392.236 525.047 392.068 524.459 392.068C523.871 392.068 523.427 392.236 523.129 392.572C522.83 392.899 522.629 393.323 522.527 393.846C522.433 394.369 522.387 395.008 522.387 395.764C522.387 396.548 522.433 397.206 522.527 397.738C522.62 398.27 522.816 398.699 523.115 399.026C523.423 399.353 523.871 399.516 524.459 399.516C525.047 399.516 525.49 399.353 525.789 399.026C526.097 398.699 526.297 398.27 526.391 397.738C526.484 397.206 526.531 396.548 526.531 395.764ZM529.535 393.258C529.535 392.577 529.731 392.045 530.123 391.662C530.525 391.27 531.038 391.074 531.663 391.074C532.289 391.074 532.797 391.27 533.189 391.662C533.591 392.045 533.791 392.577 533.791 393.258C533.791 393.939 533.591 394.476 533.189 394.868C532.797 395.26 532.289 395.456 531.663 395.456C531.038 395.456 530.525 395.26 530.123 394.868C529.731 394.476 529.535 393.939 529.535 393.258ZM538.075 391.256L532.489 401H530.921L536.507 391.256H538.075ZM531.663 392.04C531.075 392.04 530.781 392.446 530.781 393.258C530.781 394.079 531.075 394.49 531.663 394.49C531.943 394.49 532.158 394.392 532.307 394.196C532.466 393.991 532.545 393.678 532.545 393.258C532.545 392.446 532.251 392.04 531.663 392.04ZM535.233 398.984C535.233 398.303 535.429 397.771 535.821 397.388C536.223 396.996 536.736 396.8 537.361 396.8C537.977 396.8 538.481 396.996 538.873 397.388C539.275 397.771 539.475 398.303 539.475 398.984C539.475 399.665 539.275 400.202 538.873 400.594C538.481 400.986 537.977 401.182 537.361 401.182C536.736 401.182 536.223 400.986 535.821 400.594C535.429 400.202 535.233 399.665 535.233 398.984ZM537.347 397.766C536.759 397.766 536.465 398.172 536.465 398.984C536.465 399.796 536.759 400.202 537.347 400.202C537.935 400.202 538.229 399.796 538.229 398.984C538.229 398.172 537.935 397.766 537.347 397.766ZM546.345 394.42C546.616 394.065 546.985 393.767 547.451 393.524C547.918 393.281 548.445 393.16 549.033 393.16C549.705 393.16 550.317 393.328 550.867 393.664C551.427 393.991 551.866 394.453 552.183 395.05C552.501 395.647 552.659 396.333 552.659 397.108C552.659 397.883 552.501 398.578 552.183 399.194C551.866 399.801 551.427 400.277 550.867 400.622C550.317 400.958 549.705 401.126 549.033 401.126C548.445 401.126 547.923 401.009 547.465 400.776C547.008 400.533 546.635 400.235 546.345 399.88V404.668H544.749V393.286H546.345V394.42ZM551.035 397.108C551.035 396.576 550.923 396.119 550.699 395.736C550.485 395.344 550.195 395.05 549.831 394.854C549.477 394.649 549.094 394.546 548.683 394.546C548.282 394.546 547.899 394.649 547.535 394.854C547.181 395.059 546.891 395.358 546.667 395.75C546.453 396.142 546.345 396.604 546.345 397.136C546.345 397.668 546.453 398.135 546.667 398.536C546.891 398.928 547.181 399.227 547.535 399.432C547.899 399.637 548.282 399.74 548.683 399.74C549.094 399.74 549.477 399.637 549.831 399.432C550.195 399.217 550.485 398.909 550.699 398.508C550.923 398.107 551.035 397.64 551.035 397.108ZM561.308 396.954C561.308 397.243 561.289 397.505 561.252 397.738H555.358C555.404 398.354 555.633 398.849 556.044 399.222C556.454 399.595 556.958 399.782 557.556 399.782C558.414 399.782 559.021 399.423 559.376 398.704H561.097C560.864 399.413 560.44 399.997 559.824 400.454C559.217 400.902 558.461 401.126 557.556 401.126C556.818 401.126 556.156 400.963 555.568 400.636C554.989 400.3 554.532 399.833 554.196 399.236C553.869 398.629 553.706 397.929 553.706 397.136C553.706 396.343 553.864 395.647 554.182 395.05C554.508 394.443 554.961 393.977 555.54 393.65C556.128 393.323 556.8 393.16 557.556 393.16C558.284 393.16 558.932 393.319 559.502 393.636C560.071 393.953 560.514 394.401 560.832 394.98C561.149 395.549 561.308 396.207 561.308 396.954ZM559.642 396.45C559.632 395.862 559.422 395.391 559.012 395.036C558.601 394.681 558.092 394.504 557.486 394.504C556.935 394.504 556.464 394.681 556.072 395.036C555.68 395.381 555.446 395.853 555.372 396.45H559.642ZM566.77 393.16C567.377 393.16 567.918 393.286 568.394 393.538C568.879 393.79 569.257 394.163 569.528 394.658C569.799 395.153 569.934 395.75 569.934 396.45V401H568.352V396.688C568.352 395.997 568.179 395.47 567.834 395.106C567.489 394.733 567.017 394.546 566.42 394.546C565.823 394.546 565.347 394.733 564.992 395.106C564.647 395.47 564.474 395.997 564.474 396.688V401H562.878V393.286H564.474V394.168C564.735 393.851 565.067 393.603 565.468 393.426C565.879 393.249 566.313 393.16 566.77 393.16ZM574.77 401.126C574.163 401.126 573.617 401.019 573.132 400.804C572.656 400.58 572.278 400.281 571.998 399.908C571.718 399.525 571.569 399.101 571.55 398.634H573.202C573.23 398.961 573.384 399.236 573.664 399.46C573.953 399.675 574.313 399.782 574.742 399.782C575.19 399.782 575.535 399.698 575.778 399.53C576.03 399.353 576.156 399.129 576.156 398.858C576.156 398.569 576.016 398.354 575.736 398.214C575.465 398.074 575.031 397.92 574.434 397.752C573.855 397.593 573.384 397.439 573.02 397.29C572.656 397.141 572.339 396.912 572.068 396.604C571.807 396.296 571.676 395.89 571.676 395.386C571.676 394.975 571.797 394.602 572.04 394.266C572.283 393.921 572.628 393.65 573.076 393.454C573.533 393.258 574.056 393.16 574.644 393.16C575.521 393.16 576.226 393.384 576.758 393.832C577.299 394.271 577.589 394.873 577.626 395.638H576.03C576.002 395.293 575.862 395.017 575.61 394.812C575.358 394.607 575.017 394.504 574.588 394.504C574.168 394.504 573.846 394.583 573.622 394.742C573.398 394.901 573.286 395.111 573.286 395.372C573.286 395.577 573.361 395.75 573.51 395.89C573.659 396.03 573.841 396.142 574.056 396.226C574.271 396.301 574.588 396.399 575.008 396.52C575.568 396.669 576.025 396.823 576.38 396.982C576.744 397.131 577.057 397.355 577.318 397.654C577.579 397.953 577.715 398.349 577.724 398.844C577.724 399.283 577.603 399.675 577.36 400.02C577.117 400.365 576.772 400.636 576.324 400.832C575.885 401.028 575.367 401.126 574.77 401.126ZM578.916 397.108C578.916 396.333 579.075 395.647 579.392 395.05C579.719 394.453 580.158 393.991 580.708 393.664C581.268 393.328 581.884 393.16 582.556 393.16C583.163 393.16 583.69 393.281 584.138 393.524C584.596 393.757 584.96 394.051 585.23 394.406V393.286H586.84V401H585.23V399.852C584.96 400.216 584.591 400.519 584.124 400.762C583.658 401.005 583.126 401.126 582.528 401.126C581.866 401.126 581.259 400.958 580.708 400.622C580.158 400.277 579.719 399.801 579.392 399.194C579.075 398.578 578.916 397.883 578.916 397.108ZM585.23 397.136C585.23 396.604 585.118 396.142 584.894 395.75C584.68 395.358 584.395 395.059 584.04 394.854C583.686 394.649 583.303 394.546 582.892 394.546C582.482 394.546 582.099 394.649 581.744 394.854C581.39 395.05 581.1 395.344 580.876 395.736C580.662 396.119 580.554 396.576 580.554 397.108C580.554 397.64 580.662 398.107 580.876 398.508C581.1 398.909 581.39 399.217 581.744 399.432C582.108 399.637 582.491 399.74 582.892 399.74C583.303 399.74 583.686 399.637 584.04 399.432C584.395 399.227 584.68 398.928 584.894 398.536C585.118 398.135 585.23 397.668 585.23 397.136ZM592.829 393.16C593.435 393.16 593.977 393.286 594.453 393.538C594.938 393.79 595.316 394.163 595.587 394.658C595.857 395.153 595.993 395.75 595.993 396.45V401H594.411V396.688C594.411 395.997 594.238 395.47 593.893 395.106C593.547 394.733 593.076 394.546 592.479 394.546C591.881 394.546 591.405 394.733 591.051 395.106C590.705 395.47 590.533 395.997 590.533 396.688V401H588.937V393.286H590.533V394.168C590.794 393.851 591.125 393.603 591.527 393.426C591.937 393.249 592.371 393.16 592.829 393.16ZM597.497 397.108C597.497 396.333 597.655 395.647 597.973 395.05C598.299 394.453 598.738 393.991 599.289 393.664C599.849 393.328 600.469 393.16 601.151 393.16C601.655 393.16 602.149 393.272 602.635 393.496C603.129 393.711 603.521 394 603.811 394.364V390.64H605.421V401H603.811V399.838C603.549 400.211 603.185 400.519 602.719 400.762C602.261 401.005 601.734 401.126 601.137 401.126C600.465 401.126 599.849 400.958 599.289 400.622C598.738 400.277 598.299 399.801 597.973 399.194C597.655 398.578 597.497 397.883 597.497 397.108ZM603.811 397.136C603.811 396.604 603.699 396.142 603.475 395.75C603.26 395.358 602.975 395.059 602.621 394.854C602.266 394.649 601.883 394.546 601.473 394.546C601.062 394.546 600.679 394.649 600.325 394.854C599.97 395.05 599.681 395.344 599.457 395.736C599.242 396.119 599.135 396.576 599.135 397.108C599.135 397.64 599.242 398.107 599.457 398.508C599.681 398.909 599.97 399.217 600.325 399.432C600.689 399.637 601.071 399.74 601.473 399.74C601.883 399.74 602.266 399.637 602.621 399.432C602.975 399.227 603.26 398.928 603.475 398.536C603.699 398.135 603.811 397.668 603.811 397.136ZM610.863 401.126C610.135 401.126 609.477 400.963 608.889 400.636C608.301 400.3 607.839 399.833 607.503 399.236C607.167 398.629 606.999 397.929 606.999 397.136C606.999 396.352 607.171 395.657 607.517 395.05C607.862 394.443 608.333 393.977 608.931 393.65C609.528 393.323 610.195 393.16 610.933 393.16C611.67 393.16 612.337 393.323 612.935 393.65C613.532 393.977 614.003 394.443 614.349 395.05C614.694 395.657 614.867 396.352 614.867 397.136C614.867 397.92 614.689 398.615 614.335 399.222C613.98 399.829 613.495 400.3 612.879 400.636C612.272 400.963 611.6 401.126 610.863 401.126ZM610.863 399.74C611.273 399.74 611.656 399.642 612.011 399.446C612.375 399.25 612.669 398.956 612.893 398.564C613.117 398.172 613.229 397.696 613.229 397.136C613.229 396.576 613.121 396.105 612.907 395.722C612.692 395.33 612.407 395.036 612.053 394.84C611.698 394.644 611.315 394.546 610.905 394.546C610.494 394.546 610.111 394.644 609.757 394.84C609.411 395.036 609.136 395.33 608.931 395.722C608.725 396.105 608.623 396.576 608.623 397.136C608.623 397.967 608.833 398.611 609.253 399.068C609.682 399.516 610.219 399.74 610.863 399.74ZM627.151 396.954C627.151 397.243 627.133 397.505 627.095 397.738H621.201C621.248 398.354 621.477 398.849 621.887 399.222C622.298 399.595 622.802 399.782 623.399 399.782C624.258 399.782 624.865 399.423 625.219 398.704H626.941C626.708 399.413 626.283 399.997 625.667 400.454C625.061 400.902 624.305 401.126 623.399 401.126C622.662 401.126 621.999 400.963 621.411 400.636C620.833 400.3 620.375 399.833 620.039 399.236C619.713 398.629 619.549 397.929 619.549 397.136C619.549 396.343 619.708 395.647 620.025 395.05C620.352 394.443 620.805 393.977 621.383 393.65C621.971 393.323 622.643 393.16 623.399 393.16C624.127 393.16 624.776 393.319 625.345 393.636C625.915 393.953 626.358 394.401 626.675 394.98C626.993 395.549 627.151 396.207 627.151 396.954ZM625.485 396.45C625.476 395.862 625.266 395.391 624.855 395.036C624.445 394.681 623.936 394.504 623.329 394.504C622.779 394.504 622.307 394.681 621.915 395.036C621.523 395.381 621.29 395.853 621.215 396.45H625.485ZM638.06 393.16C638.667 393.16 639.208 393.286 639.684 393.538C640.169 393.79 640.547 394.163 640.818 394.658C641.098 395.153 641.238 395.75 641.238 396.45V401H639.656V396.688C639.656 395.997 639.483 395.47 639.138 395.106C638.793 394.733 638.321 394.546 637.724 394.546C637.127 394.546 636.651 394.733 636.296 395.106C635.951 395.47 635.778 395.997 635.778 396.688V401H634.196V396.688C634.196 395.997 634.023 395.47 633.678 395.106C633.333 394.733 632.861 394.546 632.264 394.546C631.667 394.546 631.191 394.733 630.836 395.106C630.491 395.47 630.318 395.997 630.318 396.688V401H628.722V393.286H630.318V394.168C630.579 393.851 630.911 393.603 631.312 393.426C631.713 393.249 632.143 393.16 632.6 393.16C633.216 393.16 633.767 393.291 634.252 393.552C634.737 393.813 635.111 394.191 635.372 394.686C635.605 394.219 635.969 393.851 636.464 393.58C636.959 393.3 637.491 393.16 638.06 393.16ZM649.887 399.572L652.071 393.286H653.765L650.825 401H648.921L645.995 393.286H647.703L649.887 399.572ZM658.318 401.126C657.59 401.126 656.932 400.963 656.344 400.636C655.756 400.3 655.294 399.833 654.958 399.236C654.622 398.629 654.454 397.929 654.454 397.136C654.454 396.352 654.627 395.657 654.972 395.05C655.317 394.443 655.789 393.977 656.386 393.65C656.983 393.323 657.651 393.16 658.388 393.16C659.125 393.16 659.793 393.323 660.39 393.65C660.987 393.977 661.459 394.443 661.804 395.05C662.149 395.657 662.322 396.352 662.322 397.136C662.322 397.92 662.145 398.615 661.79 399.222C661.435 399.829 660.95 400.3 660.334 400.636C659.727 400.963 659.055 401.126 658.318 401.126ZM658.318 399.74C658.729 399.74 659.111 399.642 659.466 399.446C659.83 399.25 660.124 398.956 660.348 398.564C660.572 398.172 660.684 397.696 660.684 397.136C660.684 396.576 660.577 396.105 660.362 395.722C660.147 395.33 659.863 395.036 659.508 394.84C659.153 394.644 658.771 394.546 658.36 394.546C657.949 394.546 657.567 394.644 657.212 394.84C656.867 395.036 656.591 395.33 656.386 395.722C656.181 396.105 656.078 396.576 656.078 397.136C656.078 397.967 656.288 398.611 656.708 399.068C657.137 399.516 657.674 399.74 658.318 399.74ZM663.368 397.136C663.368 396.343 663.526 395.647 663.844 395.05C664.17 394.443 664.618 393.977 665.188 393.65C665.757 393.323 666.41 393.16 667.148 393.16C668.081 393.16 668.851 393.384 669.458 393.832C670.074 394.271 670.489 394.901 670.704 395.722H668.982C668.842 395.339 668.618 395.041 668.31 394.826C668.002 394.611 667.614 394.504 667.148 394.504C666.494 394.504 665.972 394.737 665.58 395.204C665.197 395.661 665.006 396.305 665.006 397.136C665.006 397.967 665.197 398.615 665.58 399.082C665.972 399.549 666.494 399.782 667.148 399.782C668.072 399.782 668.683 399.376 668.982 398.564H670.704C670.48 399.348 670.06 399.973 669.444 400.44C668.828 400.897 668.062 401.126 667.148 401.126C666.41 401.126 665.757 400.963 665.188 400.636C664.618 400.3 664.17 399.833 663.844 399.236C663.526 398.629 663.368 397.929 663.368 397.136ZM679.364 396.954C679.364 397.243 679.345 397.505 679.308 397.738H673.414C673.461 398.354 673.689 398.849 674.1 399.222C674.511 399.595 675.015 399.782 675.612 399.782C676.471 399.782 677.077 399.423 677.432 398.704H679.154C678.921 399.413 678.496 399.997 677.88 400.454C677.273 400.902 676.517 401.126 675.612 401.126C674.875 401.126 674.212 400.963 673.624 400.636C673.045 400.3 672.588 399.833 672.252 399.236C671.925 398.629 671.762 397.929 671.762 397.136C671.762 396.343 671.921 395.647 672.238 395.05C672.565 394.443 673.017 393.977 673.596 393.65C674.184 393.323 674.856 393.16 675.612 393.16C676.34 393.16 676.989 393.319 677.558 393.636C678.127 393.953 678.571 394.401 678.888 394.98C679.205 395.549 679.364 396.207 679.364 396.954ZM677.698 396.45C677.689 395.862 677.479 395.391 677.068 395.036C676.657 394.681 676.149 394.504 675.542 394.504C674.991 394.504 674.52 394.681 674.128 395.036C673.736 395.381 673.503 395.853 673.428 396.45H677.698ZM675.57 391.536L673.568 392.74V391.494L675.57 390.332L677.572 391.494V392.74L675.57 391.536Z" fill="#475569"/>
</g>
<g filter="url(#filter2_dddd_193_2758)">
<rect x="19" y="236" width="284" height="48" rx="8" fill="white"/>
<rect x="23" y="240" width="40" height="40" rx="6.83333" fill="#EEE5FF"/>
<path d="M52.54 263H48C47.4696 263 46.9609 263.211 46.5858 263.586C46.2107 263.961 46 264.47 46 265V269.54M38 251.34V253C38 253.796 38.3161 254.559 38.8787 255.121C39.4413 255.684 40.2044 256 41 256C41.5304 256 42.0391 256.211 42.4142 256.586C42.7893 256.961 43 257.47 43 258C43 259.1 43.9 260 45 260C45.5304 260 46.0391 259.789 46.4142 259.414C46.7893 259.039 47 258.53 47 258C47 256.9 47.9 256 49 256H52.17M42 269.95V266C42 265.47 41.7893 264.961 41.4142 264.586C41.0391 264.211 40.5304 264 40 264C39.4696 264 38.9609 263.789 38.5858 263.414C38.2107 263.039 38 262.53 38 262V261C38 260.47 37.7893 259.961 37.4142 259.586C37.0391 259.211 36.5304 259 36 259H33.05M53 260C53 265.523 48.5228 270 43 270C37.4772 270 33 265.523 33 260C33 254.477 37.4772 250 43 250C48.5228 250 53 254.477 53 260Z" stroke="#6729FF" stroke-width="2" stroke-linecap="round" stroke-linejoin="round"/>
<path d="M81.3306 258.168C81.3306 258.663 81.2139 259.129 80.9806 259.568C80.7472 260.007 80.3739 260.366 79.8606 260.646C79.3472 260.917 78.6892 261.052 77.8866 261.052H76.1226V265H74.5266V255.27H77.8866C78.6332 255.27 79.2632 255.401 79.7766 255.662C80.2992 255.914 80.6866 256.259 80.9386 256.698C81.1999 257.137 81.3306 257.627 81.3306 258.168ZM77.8866 259.75C78.4932 259.75 78.9459 259.615 79.2446 259.344C79.5432 259.064 79.6926 258.672 79.6926 258.168C79.6926 257.104 79.0906 256.572 77.8866 256.572H76.1226V259.75H77.8866ZM82.3207 261.108C82.3207 260.333 82.4794 259.647 82.7967 259.05C83.1234 258.453 83.5621 257.991 84.1127 257.664C84.6727 257.328 85.2887 257.16 85.9607 257.16C86.5674 257.16 87.0947 257.281 87.5427 257.524C88.0001 257.757 88.3641 258.051 88.6347 258.406V257.286H90.2447V265H88.6347V263.852C88.3641 264.216 87.9954 264.519 87.5287 264.762C87.0621 265.005 86.5301 265.126 85.9327 265.126C85.2701 265.126 84.6634 264.958 84.1127 264.622C83.5621 264.277 83.1234 263.801 82.7967 263.194C82.4794 262.578 82.3207 261.883 82.3207 261.108ZM88.6347 261.136C88.6347 260.604 88.5227 260.142 88.2987 259.75C88.0841 259.358 87.7994 259.059 87.4447 258.854C87.0901 258.649 86.7074 258.546 86.2967 258.546C85.8861 258.546 85.5034 258.649 85.1487 258.854C84.7941 259.05 84.5047 259.344 84.2807 259.736C84.0661 260.119 83.9587 260.576 83.9587 261.108C83.9587 261.64 84.0661 262.107 84.2807 262.508C84.5047 262.909 84.7941 263.217 85.1487 263.432C85.5127 263.637 85.8954 263.74 86.2967 263.74C86.7074 263.74 87.0901 263.637 87.4447 263.432C87.7994 263.227 88.0841 262.928 88.2987 262.536C88.5227 262.135 88.6347 261.668 88.6347 261.136ZM95.449 257.16C96.0463 257.16 96.5737 257.281 97.031 257.524C97.4977 257.757 97.8617 258.051 98.123 258.406V257.286H99.733V265.126C99.733 265.835 99.5837 266.465 99.285 267.016C98.9863 267.576 98.5523 268.015 97.983 268.332C97.423 268.649 96.751 268.808 95.967 268.808C94.9217 268.808 94.0537 268.561 93.363 268.066C92.6723 267.581 92.2803 266.918 92.187 266.078H93.769C93.8903 266.479 94.147 266.801 94.539 267.044C94.9403 267.296 95.4163 267.422 95.967 267.422C96.611 267.422 97.129 267.226 97.521 266.834C97.9223 266.442 98.123 265.873 98.123 265.126V263.838C97.8523 264.202 97.4837 264.51 97.017 264.762C96.5597 265.005 96.037 265.126 95.449 265.126C94.777 265.126 94.161 264.958 93.601 264.622C93.0503 264.277 92.6117 263.801 92.285 263.194C91.9677 262.578 91.809 261.883 91.809 261.108C91.809 260.333 91.9677 259.647 92.285 259.05C92.6117 258.453 93.0503 257.991 93.601 257.664C94.161 257.328 94.777 257.16 95.449 257.16ZM98.123 261.136C98.123 260.604 98.011 260.142 97.787 259.75C97.5723 259.358 97.2877 259.059 96.933 258.854C96.5783 258.649 96.1957 258.546 95.785 258.546C95.3743 258.546 94.9917 258.649 94.637 258.854C94.2823 259.05 93.993 259.344 93.769 259.736C93.5543 260.119 93.447 260.576 93.447 261.108C93.447 261.64 93.5543 262.107 93.769 262.508C93.993 262.909 94.2823 263.217 94.637 263.432C95.001 263.637 95.3837 263.74 95.785 263.74C96.1957 263.74 96.5783 263.637 96.933 263.432C97.2877 263.227 97.5723 262.928 97.787 262.536C98.011 262.135 98.123 261.668 98.123 261.136ZM101.297 261.108C101.297 260.333 101.456 259.647 101.773 259.05C102.1 258.453 102.539 257.991 103.089 257.664C103.649 257.328 104.265 257.16 104.937 257.16C105.544 257.16 106.071 257.281 106.519 257.524C106.977 257.757 107.341 258.051 107.611 258.406V257.286H109.221V265H107.611V263.852C107.341 264.216 106.972 264.519 106.505 264.762C106.039 265.005 105.507 265.126 104.909 265.126C104.247 265.126 103.64 264.958 103.089 264.622C102.539 264.277 102.1 263.801 101.773 263.194C101.456 262.578 101.297 261.883 101.297 261.108ZM107.611 261.136C107.611 260.604 107.499 260.142 107.275 259.75C107.061 259.358 106.776 259.059 106.421 258.854C106.067 258.649 105.684 258.546 105.273 258.546C104.863 258.546 104.48 258.649 104.125 258.854C103.771 259.05 103.481 259.344 103.257 259.736C103.043 260.119 102.935 260.576 102.935 261.108C102.935 261.64 103.043 262.107 103.257 262.508C103.481 262.909 103.771 263.217 104.125 263.432C104.489 263.637 104.872 263.74 105.273 263.74C105.684 263.74 106.067 263.637 106.421 263.432C106.776 263.227 107.061 262.928 107.275 262.536C107.499 262.135 107.611 261.668 107.611 261.136ZM120.656 257.16C121.262 257.16 121.804 257.286 122.28 257.538C122.765 257.79 123.143 258.163 123.414 258.658C123.694 259.153 123.834 259.75 123.834 260.45V265H122.252V260.688C122.252 259.997 122.079 259.47 121.734 259.106C121.388 258.733 120.917 258.546 120.32 258.546C119.722 258.546 119.246 258.733 118.892 259.106C118.546 259.47 118.374 259.997 118.374 260.688V265H116.792V260.688C116.792 259.997 116.619 259.47 116.274 259.106C115.928 258.733 115.457 258.546 114.86 258.546C114.262 258.546 113.786 258.733 113.432 259.106C113.086 259.47 112.914 259.997 112.914 260.688V265H111.318V257.286H112.914V258.168C113.175 257.851 113.506 257.603 113.908 257.426C114.309 257.249 114.738 257.16 115.196 257.16C115.812 257.16 116.362 257.291 116.848 257.552C117.333 257.813 117.706 258.191 117.968 258.686C118.201 258.219 118.565 257.851 119.06 257.58C119.554 257.3 120.086 257.16 120.656 257.16ZM132.934 260.954C132.934 261.243 132.916 261.505 132.878 261.738H126.984C127.031 262.354 127.26 262.849 127.67 263.222C128.081 263.595 128.585 263.782 129.182 263.782C130.041 263.782 130.648 263.423 131.002 262.704H132.724C132.491 263.413 132.066 263.997 131.45 264.454C130.844 264.902 130.088 265.126 129.182 265.126C128.445 265.126 127.782 264.963 127.194 264.636C126.616 264.3 126.158 263.833 125.822 263.236C125.496 262.629 125.332 261.929 125.332 261.136C125.332 260.343 125.491 259.647 125.808 259.05C126.135 258.443 126.588 257.977 127.166 257.65C127.754 257.323 128.426 257.16 129.182 257.16C129.91 257.16 130.559 257.319 131.128 257.636C131.698 257.953 132.141 258.401 132.458 258.98C132.776 259.549 132.934 260.207 132.934 260.954ZM131.268 260.45C131.259 259.862 131.049 259.391 130.638 259.036C130.228 258.681 129.719 258.504 129.112 258.504C128.562 258.504 128.09 258.681 127.698 259.036C127.306 259.381 127.073 259.853 126.998 260.45H131.268ZM138.397 257.16C139.004 257.16 139.545 257.286 140.021 257.538C140.506 257.79 140.884 258.163 141.155 258.658C141.426 259.153 141.561 259.75 141.561 260.45V265H139.979V260.688C139.979 259.997 139.806 259.47 139.461 259.106C139.116 258.733 138.644 258.546 138.047 258.546C137.45 258.546 136.974 258.733 136.619 259.106C136.274 259.47 136.101 259.997 136.101 260.688V265H134.505V257.286H136.101V258.168C136.362 257.851 136.694 257.603 137.095 257.426C137.506 257.249 137.94 257.16 138.397 257.16ZM145.459 258.588V262.858C145.459 263.147 145.524 263.357 145.655 263.488C145.795 263.609 146.028 263.67 146.355 263.67H147.335V265H146.075C145.356 265 144.806 264.832 144.423 264.496C144.04 264.16 143.849 263.614 143.849 262.858V258.588H142.939V257.286H143.849V255.368H145.459V257.286H147.335V258.588H145.459ZM152.152 265.126C151.424 265.126 150.766 264.963 150.178 264.636C149.59 264.3 149.128 263.833 148.792 263.236C148.456 262.629 148.288 261.929 148.288 261.136C148.288 260.352 148.461 259.657 148.806 259.05C149.151 258.443 149.623 257.977 150.22 257.65C150.817 257.323 151.485 257.16 152.222 257.16C152.959 257.16 153.627 257.323 154.224 257.65C154.821 257.977 155.293 258.443 155.638 259.05C155.983 259.657 156.156 260.352 156.156 261.136C156.156 261.92 155.979 262.615 155.624 263.222C155.269 263.829 154.784 264.3 154.168 264.636C153.561 264.963 152.889 265.126 152.152 265.126ZM152.152 263.74C152.563 263.74 152.945 263.642 153.3 263.446C153.664 263.25 153.958 262.956 154.182 262.564C154.406 262.172 154.518 261.696 154.518 261.136C154.518 260.576 154.411 260.105 154.196 259.722C153.981 259.33 153.697 259.036 153.342 258.84C152.987 258.644 152.605 258.546 152.194 258.546C151.783 258.546 151.401 258.644 151.046 258.84C150.701 259.036 150.425 259.33 150.22 259.722C150.015 260.105 149.912 260.576 149.912 261.136C149.912 261.967 150.122 262.611 150.542 263.068C150.971 263.516 151.508 263.74 152.152 263.74ZM160.534 265.126C159.927 265.126 159.381 265.019 158.896 264.804C158.42 264.58 158.042 264.281 157.762 263.908C157.482 263.525 157.332 263.101 157.314 262.634H158.966C158.994 262.961 159.148 263.236 159.428 263.46C159.717 263.675 160.076 263.782 160.506 263.782C160.954 263.782 161.299 263.698 161.542 263.53C161.794 263.353 161.92 263.129 161.92 262.858C161.92 262.569 161.78 262.354 161.5 262.214C161.229 262.074 160.795 261.92 160.198 261.752C159.619 261.593 159.148 261.439 158.784 261.29C158.42 261.141 158.102 260.912 157.832 260.604C157.57 260.296 157.44 259.89 157.44 259.386C157.44 258.975 157.561 258.602 157.804 258.266C158.046 257.921 158.392 257.65 158.84 257.454C159.297 257.258 159.82 257.16 160.408 257.16C161.285 257.16 161.99 257.384 162.522 257.832C163.063 258.271 163.352 258.873 163.39 259.638H161.794C161.766 259.293 161.626 259.017 161.374 258.812C161.122 258.607 160.781 258.504 160.352 258.504C159.932 258.504 159.61 258.583 159.386 258.742C159.162 258.901 159.05 259.111 159.05 259.372C159.05 259.577 159.124 259.75 159.274 259.89C159.423 260.03 159.605 260.142 159.82 260.226C160.034 260.301 160.352 260.399 160.772 260.52C161.332 260.669 161.789 260.823 162.144 260.982C162.508 261.131 162.82 261.355 163.082 261.654C163.343 261.953 163.478 262.349 163.488 262.844C163.488 263.283 163.366 263.675 163.124 264.02C162.881 264.365 162.536 264.636 162.088 264.832C161.649 265.028 161.131 265.126 160.534 265.126ZM175.919 260.954C175.919 261.243 175.9 261.505 175.863 261.738H169.969C170.015 262.354 170.244 262.849 170.655 263.222C171.065 263.595 171.569 263.782 172.167 263.782C173.025 263.782 173.632 263.423 173.987 262.704H175.709C175.475 263.413 175.051 263.997 174.435 264.454C173.828 264.902 173.072 265.126 172.167 265.126C171.429 265.126 170.767 264.963 170.179 264.636C169.6 264.3 169.143 263.833 168.807 263.236C168.48 262.629 168.317 261.929 168.317 261.136C168.317 260.343 168.475 259.647 168.793 259.05C169.119 258.443 169.572 257.977 170.151 257.65C170.739 257.323 171.411 257.16 172.167 257.16C172.895 257.16 173.543 257.319 174.113 257.636C174.682 257.953 175.125 258.401 175.443 258.98C175.76 259.549 175.919 260.207 175.919 260.954ZM174.253 260.45C174.243 259.862 174.033 259.391 173.623 259.036C173.212 258.681 172.703 258.504 172.097 258.504C171.546 258.504 171.075 258.681 170.683 259.036C170.291 259.381 170.057 259.853 169.983 260.45H174.253ZM186.827 257.16C187.434 257.16 187.975 257.286 188.451 257.538C188.937 257.79 189.315 258.163 189.585 258.658C189.865 259.153 190.005 259.75 190.005 260.45V265H188.423V260.688C188.423 259.997 188.251 259.47 187.905 259.106C187.56 258.733 187.089 258.546 186.491 258.546C185.894 258.546 185.418 258.733 185.063 259.106C184.718 259.47 184.545 259.997 184.545 260.688V265H182.963V260.688C182.963 259.997 182.791 259.47 182.445 259.106C182.1 258.733 181.629 258.546 181.031 258.546C180.434 258.546 179.958 258.733 179.603 259.106C179.258 259.47 179.085 259.997 179.085 260.688V265H177.489V257.286H179.085V258.168C179.347 257.851 179.678 257.603 180.079 257.426C180.481 257.249 180.91 257.16 181.367 257.16C181.983 257.16 182.534 257.291 183.019 257.552C183.505 257.813 183.878 258.191 184.139 258.686C184.373 258.219 184.737 257.851 185.231 257.58C185.726 257.3 186.258 257.16 186.827 257.16ZM197.535 258.588V262.858C197.535 263.147 197.6 263.357 197.731 263.488C197.871 263.609 198.104 263.67 198.431 263.67H199.411V265H198.151C197.432 265 196.882 264.832 196.499 264.496C196.116 264.16 195.925 263.614 195.925 262.858V258.588H195.015V257.286H195.925V255.368H197.535V257.286H199.411V258.588H197.535ZM204.228 265.126C203.5 265.126 202.842 264.963 202.254 264.636C201.666 264.3 201.204 263.833 200.868 263.236C200.532 262.629 200.364 261.929 200.364 261.136C200.364 260.352 200.537 259.657 200.882 259.05C201.227 258.443 201.699 257.977 202.296 257.65C202.893 257.323 203.561 257.16 204.298 257.16C205.035 257.16 205.703 257.323 206.3 257.65C206.897 257.977 207.369 258.443 207.714 259.05C208.059 259.657 208.232 260.352 208.232 261.136C208.232 261.92 208.055 262.615 207.7 263.222C207.345 263.829 206.86 264.3 206.244 264.636C205.637 264.963 204.965 265.126 204.228 265.126ZM204.228 263.74C204.639 263.74 205.021 263.642 205.376 263.446C205.74 263.25 206.034 262.956 206.258 262.564C206.482 262.172 206.594 261.696 206.594 261.136C206.594 260.576 206.487 260.105 206.272 259.722C206.057 259.33 205.773 259.036 205.418 258.84C205.063 258.644 204.681 258.546 204.27 258.546C203.859 258.546 203.477 258.644 203.122 258.84C202.777 259.036 202.501 259.33 202.296 259.722C202.091 260.105 201.988 260.576 201.988 261.136C201.988 261.967 202.198 262.611 202.618 263.068C203.047 263.516 203.584 263.74 204.228 263.74ZM209.278 261.108C209.278 260.333 209.436 259.647 209.754 259.05C210.08 258.453 210.519 257.991 211.07 257.664C211.63 257.328 212.25 257.16 212.932 257.16C213.436 257.16 213.93 257.272 214.416 257.496C214.91 257.711 215.302 258 215.592 258.364V254.64H217.202V265H215.592V263.838C215.33 264.211 214.966 264.519 214.5 264.762C214.042 265.005 213.515 265.126 212.918 265.126C212.246 265.126 211.63 264.958 211.07 264.622C210.519 264.277 210.08 263.801 209.754 263.194C209.436 262.578 209.278 261.883 209.278 261.108ZM215.592 261.136C215.592 260.604 215.48 260.142 215.256 259.75C215.041 259.358 214.756 259.059 214.402 258.854C214.047 258.649 213.664 258.546 213.254 258.546C212.843 258.546 212.46 258.649 212.106 258.854C211.751 259.05 211.462 259.344 211.238 259.736C211.023 260.119 210.916 260.576 210.916 261.108C210.916 261.64 211.023 262.107 211.238 262.508C211.462 262.909 211.751 263.217 212.106 263.432C212.47 263.637 212.852 263.74 213.254 263.74C213.664 263.74 214.047 263.637 214.402 263.432C214.756 263.227 215.041 262.928 215.256 262.536C215.48 262.135 215.592 261.668 215.592 261.136ZM222.644 265.126C221.916 265.126 221.258 264.963 220.67 264.636C220.082 264.3 219.62 263.833 219.284 263.236C218.948 262.629 218.78 261.929 218.78 261.136C218.78 260.352 218.953 259.657 219.298 259.05C219.643 258.443 220.115 257.977 220.712 257.65C221.309 257.323 221.977 257.16 222.714 257.16C223.451 257.16 224.119 257.323 224.716 257.65C225.313 257.977 225.785 258.443 226.13 259.05C226.475 259.657 226.648 260.352 226.648 261.136C226.648 261.92 226.471 262.615 226.116 263.222C225.761 263.829 225.276 264.3 224.66 264.636C224.053 264.963 223.381 265.126 222.644 265.126ZM222.644 263.74C223.055 263.74 223.437 263.642 223.792 263.446C224.156 263.25 224.45 262.956 224.674 262.564C224.898 262.172 225.01 261.696 225.01 261.136C225.01 260.576 224.903 260.105 224.688 259.722C224.473 259.33 224.189 259.036 223.834 258.84C223.479 258.644 223.097 258.546 222.686 258.546C222.275 258.546 221.893 258.644 221.538 258.84C221.193 259.036 220.917 259.33 220.712 259.722C220.507 260.105 220.404 260.576 220.404 261.136C220.404 261.967 220.614 262.611 221.034 263.068C221.463 263.516 222 263.74 222.644 263.74ZM235.209 265.126C234.481 265.126 233.823 264.963 233.235 264.636C232.647 264.3 232.185 263.833 231.849 263.236C231.513 262.629 231.345 261.929 231.345 261.136C231.345 260.352 231.517 259.657 231.863 259.05C232.208 258.443 232.679 257.977 233.277 257.65C233.874 257.323 234.541 257.16 235.279 257.16C236.016 257.16 236.683 257.323 237.281 257.65C237.878 257.977 238.349 258.443 238.695 259.05C239.04 259.657 239.213 260.352 239.213 261.136C239.213 261.92 239.035 262.615 238.681 263.222C238.326 263.829 237.841 264.3 237.225 264.636C236.618 264.963 235.946 265.126 235.209 265.126ZM235.209 263.74C235.619 263.74 236.002 263.642 236.357 263.446C236.721 263.25 237.015 262.956 237.239 262.564C237.463 262.172 237.575 261.696 237.575 261.136C237.575 260.576 237.467 260.105 237.253 259.722C237.038 259.33 236.753 259.036 236.399 258.84C236.044 258.644 235.661 258.546 235.251 258.546C234.84 258.546 234.457 258.644 234.103 258.84C233.757 259.036 233.482 259.33 233.277 259.722C233.071 260.105 232.969 260.576 232.969 261.136C232.969 261.967 233.179 262.611 233.599 263.068C234.028 263.516 234.565 263.74 235.209 263.74ZM253.765 257.16C254.372 257.16 254.913 257.286 255.389 257.538C255.874 257.79 256.252 258.163 256.523 258.658C256.803 259.153 256.943 259.75 256.943 260.45V265H255.361V260.688C255.361 259.997 255.188 259.47 254.843 259.106C254.498 258.733 254.026 258.546 253.429 258.546C252.832 258.546 252.356 258.733 252.001 259.106C251.656 259.47 251.483 259.997 251.483 260.688V265H249.901V260.688C249.901 259.997 249.728 259.47 249.383 259.106C249.038 258.733 248.566 258.546 247.969 258.546C247.372 258.546 246.896 258.733 246.541 259.106C246.196 259.47 246.023 259.997 246.023 260.688V265H244.427V257.286H246.023V258.168C246.284 257.851 246.616 257.603 247.017 257.426C247.418 257.249 247.848 257.16 248.305 257.16C248.921 257.16 249.472 257.291 249.957 257.552C250.442 257.813 250.816 258.191 251.077 258.686C251.31 258.219 251.674 257.851 252.169 257.58C252.664 257.3 253.196 257.16 253.765 257.16ZM265.96 257.286V265H264.364V264.09C264.112 264.407 263.78 264.659 263.37 264.846C262.968 265.023 262.539 265.112 262.082 265.112C261.475 265.112 260.929 264.986 260.444 264.734C259.968 264.482 259.59 264.109 259.31 263.614C259.039 263.119 258.904 262.522 258.904 261.822V257.286H260.486V261.584C260.486 262.275 260.658 262.807 261.004 263.18C261.349 263.544 261.82 263.726 262.418 263.726C263.015 263.726 263.486 263.544 263.832 263.18C264.186 262.807 264.364 262.275 264.364 261.584V257.286H265.96ZM271.958 257.16C272.564 257.16 273.106 257.286 273.582 257.538C274.067 257.79 274.445 258.163 274.716 258.658C274.986 259.153 275.122 259.75 275.122 260.45V265H273.54V260.688C273.54 259.997 273.367 259.47 273.022 259.106C272.676 258.733 272.205 258.546 271.608 258.546C271.01 258.546 270.534 258.733 270.18 259.106C269.834 259.47 269.662 259.997 269.662 260.688V265H268.066V257.286H269.662V258.168C269.923 257.851 270.254 257.603 270.656 257.426C271.066 257.249 271.5 257.16 271.958 257.16ZM276.625 261.108C276.625 260.333 276.784 259.647 277.101 259.05C277.428 258.453 277.867 257.991 278.417 257.664C278.977 257.328 279.598 257.16 280.279 257.16C280.783 257.16 281.278 257.272 281.763 257.496C282.258 257.711 282.65 258 282.939 258.364V254.64H284.549V265H282.939V263.838C282.678 264.211 282.314 264.519 281.847 264.762C281.39 265.005 280.863 265.126 280.265 265.126C279.593 265.126 278.977 264.958 278.417 264.622C277.867 264.277 277.428 263.801 277.101 263.194C276.784 262.578 276.625 261.883 276.625 261.108ZM282.939 261.136C282.939 260.604 282.827 260.142 282.603 259.75C282.389 259.358 282.104 259.059 281.749 258.854C281.395 258.649 281.012 258.546 280.601 258.546C280.191 258.546 279.808 258.649 279.453 258.854C279.099 259.05 278.809 259.344 278.585 259.736C278.371 260.119 278.263 260.576 278.263 261.108C278.263 261.64 278.371 262.107 278.585 262.508C278.809 262.909 279.099 263.217 279.453 263.432C279.817 263.637 280.2 263.74 280.601 263.74C281.012 263.74 281.395 263.637 281.749 263.432C282.104 263.227 282.389 262.928 282.603 262.536C282.827 262.135 282.939 261.668 282.939 261.136ZM289.992 265.126C289.264 265.126 288.606 264.963 288.018 264.636C287.43 264.3 286.968 263.833 286.632 263.236C286.296 262.629 286.128 261.929 286.128 261.136C286.128 260.352 286.3 259.657 286.646 259.05C286.991 258.443 287.462 257.977 288.06 257.65C288.657 257.323 289.324 257.16 290.062 257.16C290.799 257.16 291.466 257.323 292.064 257.65C292.661 257.977 293.132 258.443 293.478 259.05C293.823 259.657 293.996 260.352 293.996 261.136C293.996 261.92 293.818 262.615 293.464 263.222C293.109 263.829 292.624 264.3 292.008 264.636C291.401 264.963 290.729 265.126 289.992 265.126ZM289.992 263.74C290.402 263.74 290.785 263.642 291.14 263.446C291.504 263.25 291.798 262.956 292.022 262.564C292.246 262.172 292.358 261.696 292.358 261.136C292.358 260.576 292.25 260.105 292.036 259.722C291.821 259.33 291.536 259.036 291.182 258.84C290.827 258.644 290.444 258.546 290.034 258.546C289.623 258.546 289.24 258.644 288.886 258.84C288.54 259.036 288.265 259.33 288.06 259.722C287.854 260.105 287.752 260.576 287.752 261.136C287.752 261.967 287.962 262.611 288.382 263.068C288.811 263.516 289.348 263.74 289.992 263.74Z" fill="#475569"/>
</g>
<defs>
<filter id="filter0_dddd_193_2758" x="401" y="0" width="245" height="119" filterUnits="userSpaceOnUse" color-interpolation-filters="sRGB">
<feFlood flood-opacity="0" result="BackgroundImageFix"/>
<feColorMatrix in="SourceAlpha" type="matrix" values="0 0 0 0 0 0 0 0 0 0 0 0 0 0 0 0 0 0 127 0" result="hardAlpha"/>
<feOffset dy="3"/>
<feGaussianBlur stdDeviation="3.5"/>
<feColorMatrix type="matrix" values="0 0 0 0 0.403922 0 0 0 0 0.454902 0 0 0 0 0.541176 0 0 0 0.2 0"/>
<feBlend mode="normal" in2="BackgroundImageFix" result="effect1_dropShadow_193_2758"/>
<feColorMatrix in="SourceAlpha" type="matrix" values="0 0 0 0 0 0 0 0 0 0 0 0 0 0 0 0 0 0 127 0" result="hardAlpha"/>
<feOffset dy="12"/>
<feGaussianBlur stdDeviation="6"/>
<feColorMatrix type="matrix" values="0 0 0 0 0.403922 0 0 0 0 0.454902 0 0 0 0 0.541176 0 0 0 0.17 0"/>
<feBlend mode="normal" in2="effect1_dropShadow_193_2758" result="effect2_dropShadow_193_2758"/>
<feColorMatrix in="SourceAlpha" type="matrix" values="0 0 0 0 0 0 0 0 0 0 0 0 0 0 0 0 0 0 127 0" result="hardAlpha"/>
<feOffset dy="27"/>
<feGaussianBlur stdDeviation="8"/>
<feColorMatrix type="matrix" values="0 0 0 0 0.403922 0 0 0 0 0.454902 0 0 0 0 0.541176 0 0 0 0.1 0"/>
<feBlend mode="normal" in2="effect2_dropShadow_193_2758" result="effect3_dropShadow_193_2758"/>
<feColorMatrix in="SourceAlpha" type="matrix" values="0 0 0 0 0 0 0 0 0 0 0 0 0 0 0 0 0 0 127 0" result="hardAlpha"/>
<feOffset dy="48"/>
<feGaussianBlur stdDeviation="9.5"/>
<feColorMatrix type="matrix" values="0 0 0 0 0.403922 0 0 0 0 0.454902 0 0 0 0 0.541176 0 0 0 0.03 0"/>
<feBlend mode="normal" in2="effect3_dropShadow_193_2758" result="effect4_dropShadow_193_2758"/>
<feBlend mode="normal" in="SourceGraphic" in2="effect4_dropShadow_193_2758" result="shape"/>
</filter>
<filter id="filter1_dddd_193_2758" x="433" y="368" width="274" height="119" filterUnits="userSpaceOnUse" color-interpolation-filters="sRGB">
<feFlood flood-opacity="0" result="BackgroundImageFix"/>
<feColorMatrix in="SourceAlpha" type="matrix" values="0 0 0 0 0 0 0 0 0 0 0 0 0 0 0 0 0 0 127 0" result="hardAlpha"/>
<feOffset dy="3"/>
<feGaussianBlur stdDeviation="3.5"/>
<feColorMatrix type="matrix" values="0 0 0 0 0.403922 0 0 0 0 0.454902 0 0 0 0 0.541176 0 0 0 0.2 0"/>
<feBlend mode="normal" in2="BackgroundImageFix" result="effect1_dropShadow_193_2758"/>
<feColorMatrix in="SourceAlpha" type="matrix" values="0 0 0 0 0 0 0 0 0 0 0 0 0 0 0 0 0 0 127 0" result="hardAlpha"/>
<feOffset dy="12"/>
<feGaussianBlur stdDeviation="6"/>
<feColorMatrix type="matrix" values="0 0 0 0 0.403922 0 0 0 0 0.454902 0 0 0 0 0.541176 0 0 0 0.17 0"/>
<feBlend mode="normal" in2="effect1_dropShadow_193_2758" result="effect2_dropShadow_193_2758"/>
<feColorMatrix in="SourceAlpha" type="matrix" values="0 0 0 0 0 0 0 0 0 0 0 0 0 0 0 0 0 0 127 0" result="hardAlpha"/>
<feOffset dy="27"/>
<feGaussianBlur stdDeviation="8"/>
<feColorMatrix type="matrix" values="0 0 0 0 0.403922 0 0 0 0 0.454902 0 0 0 0 0.541176 0 0 0 0.1 0"/>
<feBlend mode="normal" in2="effect2_dropShadow_193_2758" result="effect3_dropShadow_193_2758"/>
<feColorMatrix in="SourceAlpha" type="matrix" values="0 0 0 0 0 0 0 0 0 0 0 0 0 0 0 0 0 0 127 0" result="hardAlpha"/>
<feOffset dy="48"/>
<feGaussianBlur stdDeviation="9.5"/>
<feColorMatrix type="matrix" values="0 0 0 0 0.403922 0 0 0 0 0.454902 0 0 0 0 0.541176 0 0 0 0.03 0"/>
<feBlend mode="normal" in2="effect3_dropShadow_193_2758" result="effect4_dropShadow_193_2758"/>
<feBlend mode="normal" in="SourceGraphic" in2="effect4_dropShadow_193_2758" result="shape"/>
</filter>
<filter id="filter2_dddd_193_2758" x="0" y="232" width="322" height="119" filterUnits="userSpaceOnUse" color-interpolation-filters="sRGB">
<feFlood flood-opacity="0" result="BackgroundImageFix"/>
<feColorMatrix in="SourceAlpha" type="matrix" values="0 0 0 0 0 0 0 0 0 0 0 0 0 0 0 0 0 0 127 0" result="hardAlpha"/>
<feOffset dy="3"/>
<feGaussianBlur stdDeviation="3.5"/>
<feColorMatrix type="matrix" values="0 0 0 0 0.403922 0 0 0 0 0.454902 0 0 0 0 0.541176 0 0 0 0.2 0"/>
<feBlend mode="normal" in2="BackgroundImageFix" result="effect1_dropShadow_193_2758"/>
<feColorMatrix in="SourceAlpha" type="matrix" values="0 0 0 0 0 0 0 0 0 0 0 0 0 0 0 0 0 0 127 0" result="hardAlpha"/>
<feOffset dy="12"/>
<feGaussianBlur stdDeviation="6"/>
<feColorMatrix type="matrix" values="0 0 0 0 0.403922 0 0 0 0 0.454902 0 0 0 0 0.541176 0 0 0 0.17 0"/>
<feBlend mode="normal" in2="effect1_dropShadow_193_2758" result="effect2_dropShadow_193_2758"/>
<feColorMatrix in="SourceAlpha" type="matrix" values="0 0 0 0 0 0 0 0 0 0 0 0 0 0 0 0 0 0 127 0" result="hardAlpha"/>
<feOffset dy="27"/>
<feGaussianBlur stdDeviation="8"/>
<feColorMatrix type="matrix" values="0 0 0 0 0.403922 0 0 0 0 0.454902 0 0 0 0 0.541176 0 0 0 0.1 0"/>
<feBlend mode="normal" in2="effect2_dropShadow_193_2758" result="effect3_dropShadow_193_2758"/>
<feColorMatrix in="SourceAlpha" type="matrix" values="0 0 0 0 0 0 0 0 0 0 0 0 0 0 0 0 0 0 127 0" result="hardAlpha"/>
<feOffset dy="48"/>
<feGaussianBlur stdDeviation="9.5"/>
<feColorMatrix type="matrix" values="0 0 0 0 0.403922 0 0 0 0 0.454902 0 0 0 0 0.541176 0 0 0 0.03 0"/>
<feBlend mode="normal" in2="effect3_dropShadow_193_2758" result="effect4_dropShadow_193_2758"/>
<feBlend mode="normal" in="SourceGraphic" in2="effect4_dropShadow_193_2758" result="shape"/>
</filter>
</defs>
</svg>
