<svg width="19" height="24" viewBox="0 0 19 24" fill="none" xmlns="http://www.w3.org/2000/svg">
<path d="M13.2784 8.26945C12.8054 8.23245 12.2974 8.34545 11.5194 8.64245C11.5854 8.61745 10.7774 8.93245 10.5514 9.01245C10.0494 9.18745 9.63638 9.28345 9.17338 9.28345C8.71538 9.28345 8.29338 9.19145 7.80738 9.02845C7.65238 8.97544 7.49638 8.91845 7.30238 8.84245C7.22038 8.81045 6.92038 8.69045 6.85438 8.66545C6.20638 8.41145 5.84138 8.31545 5.53838 8.32345C4.38638 8.33845 3.29538 9.00344 2.66238 10.1054C1.37038 12.3494 2.08538 16.4044 3.97438 19.1364C4.98038 20.5804 5.53038 21.0964 5.75238 21.0894C5.97438 21.0794 6.13738 21.0324 6.53538 20.8644L6.70238 20.7934C7.70738 20.3644 8.41238 20.1754 9.47338 20.1754C10.4944 20.1754 11.1764 20.3614 12.1414 20.7774L12.3094 20.8494C12.7074 21.0194 12.8514 21.0574 13.1014 21.0514C13.4594 21.0464 13.9004 20.6344 14.8794 19.1974C15.1474 18.8064 15.3844 18.3944 15.5894 17.9774C15.4546 17.8665 15.3239 17.7507 15.1974 17.6304C13.9084 16.4024 13.1114 14.7464 13.0894 12.7004C13.0678 11.1866 13.5654 9.71106 14.4994 8.51945C14.1074 8.37474 13.6957 8.29044 13.2784 8.26945ZM13.4334 6.27545C14.1414 6.32345 16.1694 6.53945 17.4894 8.47145C17.3814 8.53145 15.0654 9.87544 15.0894 12.6834C15.1254 16.0434 18.0294 17.1594 18.0654 17.1714C18.0414 17.2554 17.5974 18.7674 16.5294 20.3274C15.6054 21.6834 14.6454 23.0274 13.1334 23.0514C11.6454 23.0874 11.1654 22.1754 9.47338 22.1754C7.76938 22.1754 7.24138 23.0274 5.83738 23.0874C4.37338 23.1354 3.26938 21.6234 2.33338 20.2794C0.425378 17.5194 -1.02662 12.5034 0.929378 9.10744C1.90138 7.41544 3.62938 6.34745 5.51338 6.32345C6.94138 6.28745 8.29738 7.28345 9.17338 7.28345C10.0374 7.28345 11.5854 6.13145 13.4334 6.27545ZM12.2934 4.45145C11.5134 5.38745 10.2414 6.11945 9.00538 6.02345C8.83738 4.75145 9.46138 3.41945 10.1814 2.59145C10.9854 1.65545 12.3294 0.959446 13.4454 0.911446C13.5894 2.20745 13.0734 3.51545 12.2934 4.45145Z" fill="#6729FF"/>
</svg>
